<svg xmlns="http://www.w3.org/2000/svg" viewBox="0 0 23.87 23.87"><defs><style>.cls-1{fill:#2b2b2b;}</style></defs><title>Asset 1</title><g id="Layer_2" data-name="Layer 2"><g id="Layer_1-2" data-name="Layer 1"><path class="cls-1" d="M4,16.69l-.33-.61L7.9,13.72V10.65a.74.74,0,0,1,.74-.74H9a.74.74,0,0,1,.74.74v3a.05.05,0,0,0,.05.05h.39a.05.05,0,0,0,0-.05v-3A.74.74,0,0,1,11,9.91h.4a.74.74,0,0,1,.74.74v3a.05.05,0,0,0,0,.05h.4a.06.06,0,0,0,.05-.05v-3a.74.74,0,0,1,.74-.74h.4a.75.75,0,0,1,.74.74v3a.05.05,0,0,0,.05.05H15a.05.05,0,0,0,0-.05V10.09l4.87-2.91.35.6-4.52,2.71v3.17a.75.75,0,0,1-.75.74h-.39a.75.75,0,0,1-.75-.74v-3a0,0,0,0,0,0,0h-.4a0,0,0,0,0-.05,0v3a.74.74,0,0,1-.74.74h-.4a.74.74,0,0,1-.74-.74v-3a0,0,0,0,0-.05,0H11a0,0,0,0,0,0,0v3a.75.75,0,0,1-.75.74H9.83a.75.75,0,0,1-.75-.74v-3a0,0,0,0,0,0,0h-.4a0,0,0,0,0-.05,0v3.48Z"/><path class="cls-1" d="M21.2,10a2.63,2.63,0,0,0,1.87-.77,2.54,2.54,0,0,0,.8-1.9V2.67a2.56,2.56,0,0,0-.8-1.9A2.63,2.63,0,0,0,21.2,0H20a2.65,2.65,0,0,0-1.91.77A2.43,2.43,0,0,0,17.41,2h-11A2.55,2.55,0,0,0,5.72.77,2.59,2.59,0,0,0,3.83,0H2.67A2.59,2.59,0,0,0,.78.77,2.6,2.6,0,0,0,0,2.67V7.36A2.63,2.63,0,0,0,.77,9.23a2.5,2.5,0,0,0,1.85.8A2,2,0,0,1,4,10.6,1.9,1.9,0,0,1,4.6,12,1.94,1.94,0,0,1,4,13.43a1.88,1.88,0,0,1-1.38.6,2.52,2.52,0,0,0-1.84.77A2.56,2.56,0,0,0,0,16.7v4.5a2.63,2.63,0,0,0,.77,1.87,2.54,2.54,0,0,0,1.9.8H3.83a2.58,2.58,0,0,0,1.9-.8,2.69,2.69,0,0,0,.74-1.46H17.36a2.56,2.56,0,0,0,.76,1.46,2.64,2.64,0,0,0,1.92.8H21.2a2.73,2.73,0,0,0,2.67-2.67V16.56a2.52,2.52,0,0,0-.8-1.86,2.63,2.63,0,0,0-1.87-.77,1.84,1.84,0,0,1-1.4-.59A2,2,0,0,1,21.2,10ZM6.5,2.69H17.32V4.94a1.95,1.95,0,0,1-2,2H8.47a1.9,1.9,0,0,1-1.38-.58,1.84,1.84,0,0,1-.59-1.4ZM17.32,20.92H6.5V19a1.84,1.84,0,0,1,.59-1.4A1.9,1.9,0,0,1,8.47,17h6.88a1.95,1.95,0,0,1,2,2Zm1.21-9a2.59,2.59,0,0,0,.77,1.86,2.53,2.53,0,0,0,1.9.81,1.89,1.89,0,0,1,1.38.57,1.82,1.82,0,0,1,.6,1.36V21.2a2,2,0,0,1-2,2H20a1.93,1.93,0,0,1-1.43-.59A1.87,1.87,0,0,1,18,21.2V19a2.65,2.65,0,0,0-2.67-2.67H8.47a2.6,2.6,0,0,0-1.86.77,2.54,2.54,0,0,0-.8,1.9V21.2a1.9,1.9,0,0,1-.58,1.38,1.84,1.84,0,0,1-1.4.59H2.67a1.84,1.84,0,0,1-1.4-.59A1.9,1.9,0,0,1,.69,21.2V16.7a1.9,1.9,0,0,1,.58-1.41,1.83,1.83,0,0,1,1.35-.57,2.57,2.57,0,0,0,1.87-.8A2.62,2.62,0,0,0,5.29,12a2.54,2.54,0,0,0-.8-1.89,2.58,2.58,0,0,0-1.87-.77,1.8,1.8,0,0,1-1.35-.6A1.9,1.9,0,0,1,.69,7.36V2.67a1.86,1.86,0,0,1,.58-1.4A1.86,1.86,0,0,1,2.67.69H3.83a1.86,1.86,0,0,1,1.4.58,1.86,1.86,0,0,1,.58,1.4V4.94a2.54,2.54,0,0,0,.8,1.9,2.6,2.6,0,0,0,1.86.77h6.88A2.65,2.65,0,0,0,18,4.94V2.67a1.84,1.84,0,0,1,.59-1.4A2,2,0,0,1,20,.69H21.2a1.9,1.9,0,0,1,1.38.58,1.85,1.85,0,0,1,.6,1.4V7.31a1.85,1.85,0,0,1-.6,1.4,1.9,1.9,0,0,1-1.38.58A2.65,2.65,0,0,0,18.53,12Z"/><path class="cls-1" d="M20.65,5.79a.9.9,0,1,1,.9-.89A.89.89,0,0,1,20.65,5.79Zm0-1.24a.35.35,0,0,0,0,.69.35.35,0,1,0,0-.69Z"/><path class="cls-1" d="M20.65,3.52a.9.9,0,1,1,.9-.9A.89.89,0,0,1,20.65,3.52Zm0-1.24a.34.34,0,0,0-.34.34.35.35,0,0,0,.34.35A.35.35,0,0,0,21,2.62.35.35,0,0,0,20.65,2.28Z"/><path class="cls-1" d="M20.65,8.06a.9.9,0,1,1,.9-.89A.89.89,0,0,1,20.65,8.06Zm0-1.24a.35.35,0,0,0-.34.35.34.34,0,0,0,.34.34A.35.35,0,0,0,21,7.17.35.35,0,0,0,20.65,6.82Z"/><path class="cls-1" d="M3.22,18.08a.9.9,0,1,1-.9.89A.89.89,0,0,1,3.22,18.08Zm0,1.24A.35.35,0,0,0,3.56,19a.35.35,0,0,0-.69,0A.35.35,0,0,0,3.22,19.32Z"/><path class="cls-1" d="M3.22,20.35a.9.9,0,1,1-.9.9A.89.89,0,0,1,3.22,20.35Zm0,1.24a.34.34,0,0,0,.34-.34.35.35,0,1,0-.69,0A.35.35,0,0,0,3.22,21.59Z"/><path class="cls-1" d="M3.22,15.81a.89.89,0,1,1-.9.89A.89.89,0,0,1,3.22,15.81Zm0,1.23a.34.34,0,1,0-.35-.34A.34.34,0,0,0,3.22,17Z"/><path class="cls-1" d="M4.36,7H2V3.31a1,1,0,0,1,.28-.72A.94.94,0,0,1,3,2.3h.62a.94.94,0,0,1,.69.29,1,1,0,0,1,.28.72v1.3a1.06,1.06,0,0,1-.24.72,1.23,1.23,0,0,1-1,.35H3v-2a.14.14,0,0,1,0-.11.13.13,0,0,1,.1,0h.21a.13.13,0,0,1,.1,0,.14.14,0,0,1,0,.11v1h0A.28.28,0,0,0,3.79,5a.29.29,0,0,0,.27-.28v-1a.71.71,0,0,0-.2-.51A.65.65,0,0,0,3.37,3H3.16a.65.65,0,0,0-.49.21.71.71,0,0,0-.2.51V5.94a.34.34,0,0,0,.32.32h.53a1.78,1.78,0,0,0,1.39-.54,1.66,1.66,0,0,0,.38-1.14V3.31a1.56,1.56,0,0,0-.44-1.12,1.41,1.41,0,0,0-1.07-.46H3a1.41,1.41,0,0,0-1.07.46,1.56,1.56,0,0,0-.44,1.12V7.19a.33.33,0,0,0,.31.34H4.12l1.6,1.66.41-.38Z"/><path class="cls-1" d="M19.51,16.91h2.36v3.64a1,1,0,0,1-.28.72.91.91,0,0,1-.68.29h-.62a.92.92,0,0,1-.69-.3,1,1,0,0,1-.28-.71v-1.3a1.06,1.06,0,0,1,.24-.72,1.22,1.22,0,0,1,1-.36h.3v2a.14.14,0,0,1,0,.11.13.13,0,0,1-.1,0H20.5a.12.12,0,0,1-.1,0,.14.14,0,0,1,0-.11v-1h0a.28.28,0,0,0-.27-.28.28.28,0,0,0-.27.28v1a.71.71,0,0,0,.2.51.65.65,0,0,0,.49.21h.21a.65.65,0,0,0,.49-.21.71.71,0,0,0,.2-.51V17.93a.33.33,0,0,0-.32-.32h-.53a1.78,1.78,0,0,0-1.4.54,1.69,1.69,0,0,0-.37,1.14v1.27a1.58,1.58,0,0,0,.44,1.12,1.44,1.44,0,0,0,1.07.46h.62A1.44,1.44,0,0,0,22,21.68a1.58,1.58,0,0,0,.44-1.12V16.67a.32.32,0,0,0-.31-.33H19.75l-1.6-1.67-.41.39Z"/><path class="cls-1" d="M6.49,10.29a.9.9,0,1,1,.9-.89A.89.89,0,0,1,6.49,10.29Zm0-1.24a.35.35,0,0,0-.34.35.34.34,0,0,0,.34.34.35.35,0,0,0,.35-.34A.35.35,0,0,0,6.49,9.05Z"/><path class="cls-1" d="M17.38,13.58a.9.9,0,0,1,0,1.79.9.9,0,1,1,0-1.79Zm0,1.24a.35.35,0,0,0,.34-.35.34.34,0,0,0-.34-.34.35.35,0,0,0-.35.34A.35.35,0,0,0,17.38,14.82Z"/><path class="cls-1" d="M8.57,20a.64.64,0,0,1-.64-.64v-.73a.64.64,0,0,1,1.28,0v.73A.64.64,0,0,1,8.57,20Zm0-1.46a.09.09,0,0,0-.09.09v.73a.09.09,0,0,0,.18,0v-.73A.09.09,0,0,0,8.57,18.54Z"/><path class="cls-1" d="M10.25,20a.64.64,0,0,1-.64-.64v-.73a.64.64,0,0,1,1.28,0v.73A.64.64,0,0,1,10.25,20Zm0-1.46a.09.09,0,0,0-.09.09v.73a.09.09,0,0,0,.18,0v-.73A.09.09,0,0,0,10.25,18.54Z"/><path class="cls-1" d="M11.92,20a.64.64,0,0,1-.64-.64v-.73a.64.64,0,0,1,1.28,0v.73A.64.64,0,0,1,11.92,20Zm0-1.46a.09.09,0,0,0-.09.09v.73a.09.09,0,0,0,.18,0v-.73A.09.09,0,0,0,11.92,18.54Z"/><path class="cls-1" d="M13.6,20a.64.64,0,0,1-.64-.64v-.73a.64.64,0,0,1,1.28,0v.73A.64.64,0,0,1,13.6,20Zm0-1.46a.09.09,0,0,0-.09.09v.73a.09.09,0,0,0,.18,0v-.73A.09.09,0,0,0,13.6,18.54Z"/><path class="cls-1" d="M15.27,20a.64.64,0,0,1-.64-.64v-.73a.64.64,0,0,1,1.28,0v.73A.64.64,0,0,1,15.27,20Zm0-1.46a.09.09,0,0,0-.09.09v.73a.09.09,0,1,0,.18,0v-.73A.09.09,0,0,0,15.27,18.54Z"/><path class="cls-1" d="M8.57,5.88a.64.64,0,0,1-.64-.64V4.51a.64.64,0,1,1,1.28,0v.73A.64.64,0,0,1,8.57,5.88Zm0-1.47a.1.1,0,0,0-.09.1v.73a.09.09,0,0,0,.18,0V4.51A.1.1,0,0,0,8.57,4.41Z"/><path class="cls-1" d="M10.25,5.88a.64.64,0,0,1-.64-.64V4.51a.64.64,0,1,1,1.28,0v.73A.64.64,0,0,1,10.25,5.88Zm0-1.47a.1.1,0,0,0-.09.1v.73a.09.09,0,0,0,.18,0V4.51A.1.1,0,0,0,10.25,4.41Z"/><path class="cls-1" d="M11.92,5.88a.64.64,0,0,1-.64-.64V4.51a.64.64,0,1,1,1.28,0v.73A.64.64,0,0,1,11.92,5.88Zm0-1.47a.1.1,0,0,0-.09.1v.73a.09.09,0,0,0,.18,0V4.51A.1.1,0,0,0,11.92,4.41Z"/><path class="cls-1" d="M13.6,5.88A.64.64,0,0,1,13,5.24V4.51a.64.64,0,1,1,1.28,0v.73A.64.64,0,0,1,13.6,5.88Zm0-1.47a.1.1,0,0,0-.09.1v.73a.09.09,0,0,0,.18,0V4.51A.1.1,0,0,0,13.6,4.41Z"/><path class="cls-1" d="M15.27,5.88a.64.64,0,0,1-.64-.64V4.51a.64.64,0,1,1,1.28,0v.73A.64.64,0,0,1,15.27,5.88Zm0-1.47a.1.1,0,0,0-.09.1v.73a.09.09,0,0,0,.18,0V4.51A.1.1,0,0,0,15.27,4.41Z"/><path class="cls-1" d="M2.58,13.18A1.19,1.19,0,1,1,3.77,12,1.19,1.19,0,0,1,2.58,13.18Zm0-1.78a.59.59,0,1,0,.58.59A.58.58,0,0,0,2.58,11.4Z"/><path class="cls-1" d="M20.08,12a1.19,1.19,0,1,1,1.19,1.19A1.19,1.19,0,0,1,20.08,12Zm.61,0a.58.58,0,1,0,.58-.59A.58.58,0,0,0,20.69,12Z"/></g></g></svg>