<svg xmlns="http://www.w3.org/2000/svg" viewBox="0 0 58.15 59.61"><defs><style>.cls-1{fill:none;stroke:#2d2d2c;stroke-miterlimit:10;stroke-width:2px;}</style></defs><title>Asset 3</title><g id="Layer_2" data-name="Layer 2"><g id="Layer_3" data-name="Layer 3"><path class="cls-1" d="M57.15,52.65c0,3.29-2.38,6-5.31,6H6.31c-2.93,0-5.31-2.67-5.31-6V7C1,3.67,3.38,1,6.31,1H51.84c2.93,0,5.31,2.67,5.31,6Z"/><path class="cls-1" d="M50.8,47.49a4.39,4.39,0,0,1-4.11,4.61H11.45a4.38,4.38,0,0,1-4.1-4.61V12.12a4.38,4.38,0,0,1,4.1-4.61H46.69a4.39,4.39,0,0,1,4.11,4.61Z"/><path class="cls-1" d="M7.66,31.82H20.49s-.83,11.5,7.67,10.33c0,0,7.66.5,6.66-10.66h15.5"/><ellipse class="cls-1" cx="27.37" cy="18.49" rx="5.25" ry="6.17"/><line class="cls-1" x1="27.37" y1="16.49" x2="27.37" y2="24.82"/><line class="cls-1" x1="25.32" y1="51.99" x2="25.32" y2="45.82"/><line class="cls-1" x1="30.32" y1="51.99" x2="30.32" y2="45.82"/></g></g></svg>