<svg xmlns="http://www.w3.org/2000/svg" viewBox="0 0 57.65 59.11"><defs><style>.cls-1{fill:none;stroke:#2d2d2c;stroke-miterlimit:10;stroke-width:1.5px;}</style></defs><title>Asset 4</title><g id="Layer_2" data-name="Layer 2"><g id="Layer_3" data-name="Layer 3"><path class="cls-1" d="M56.9,52.4c0,3.29-2.38,6-5.31,6H6.06c-2.93,0-5.31-2.67-5.31-6V6.71c0-3.29,2.38-6,5.31-6H51.59c2.93,0,5.31,2.67,5.31,6Z"/><path class="cls-1" d="M50.55,47.24a4.39,4.39,0,0,1-4.11,4.61H11.2a4.38,4.38,0,0,1-4.1-4.61V11.87a4.38,4.38,0,0,1,4.1-4.61H46.44a4.39,4.39,0,0,1,4.11,4.61Z"/><ellipse class="cls-1" cx="15.37" cy="42.09" rx="3.5" ry="3.67"/><ellipse class="cls-1" cx="41.37" cy="42.09" rx="3.5" ry="3.67"/><ellipse class="cls-1" cx="15.37" cy="14.09" rx="3.5" ry="3.67"/><ellipse class="cls-1" cx="41.37" cy="14.09" rx="3.5" ry="3.67"/><path class="cls-1" d="M6.87,28.42s19.34,1.5,21.67-21.16"/><path class="cls-1" d="M28.54,7.26S27.63,27.35,50.3,29.68"/><path class="cls-1" d="M50.3,30.28s-20.47-.86-22.8,21.81"/><path class="cls-1" d="M27.37,52.59S29.54,31.35,6.87,29"/></g></g></svg>