<svg xmlns="http://www.w3.org/2000/svg" viewBox="0 0 58.15 59.61"><defs><style>.cls-1,.cls-2{fill:none;stroke:#2d2d2c;stroke-miterlimit:10;}.cls-1{stroke-width:2px;}.cls-2{stroke-width:1.5px;}</style></defs><title>Asset 2</title><g id="Layer_2" data-name="Layer 2"><g id="Layer_3" data-name="Layer 3"><path class="cls-1" d="M57.15,52.65c0,3.29-2.38,6-5.31,6H6.31c-2.93,0-5.31-2.67-5.31-6V7C1,3.67,3.38,1,6.31,1H51.84c2.93,0,5.31,2.67,5.31,6Z"/><path class="cls-1" d="M50.8,47.49a4.39,4.39,0,0,1-4.11,4.61H11.45a4.38,4.38,0,0,1-4.1-4.61V12.12a4.38,4.38,0,0,1,4.1-4.61H46.69a4.39,4.39,0,0,1,4.11,4.61Z"/><path class="cls-2" d="M14,30.32s11,.83,4.5-8.5"/><path class="cls-2" d="M44.52,30.32s-11,.83-4.5-8.5"/><path class="cls-2" d="M20.13,28.15a13.28,13.28,0,0,0,4.32,1.75A24.72,24.72,0,0,0,38.3,28.82"/><polyline class="cls-2" points="24.63 30.49 24.63 38.65 33.47 38.65 33.47 30.49"/></g></g></svg>