<svg xmlns="http://www.w3.org/2000/svg" xmlns:xlink="http://www.w3.org/1999/xlink" viewBox="0 0 108.9 107.33"><defs><style>.cls-1,.cls-2,.cls-3,.cls-4,.cls-5,.cls-6,.cls-7,.cls-8{fill:none;stroke-miterlimit:10;stroke-width:4px;}.cls-1,.cls-2,.cls-4,.cls-5,.cls-7,.cls-8{opacity:0.4;}.cls-1{stroke:url(#New_Gradient_Swatch_1);}.cls-2,.cls-6{stroke:url(#New_Gradient_Swatch_1-2);}.cls-3{opacity:0.8;stroke:url(#New_Gradient_Swatch_1-3);}.cls-4{stroke:url(#New_Gradient_Swatch_1-4);}.cls-5{stroke:url(#New_Gradient_Swatch_1-5);}.cls-6{opacity:0.7;}.cls-7{stroke:url(#New_Gradient_Swatch_1-7);}.cls-8{stroke:url(#New_Gradient_Swatch_1-8);}.cls-9{fill:url(#linear-gradient);}.cls-10{fill:url(#linear-gradient-2);}</style><linearGradient id="New_Gradient_Swatch_1" x1="4.95" y1="53.19" x2="106.92" y2="53.19" gradientUnits="userSpaceOnUse"><stop offset="0.04" stop-color="#8aba40"/><stop offset="0.07" stop-color="#8aba40"/></linearGradient><linearGradient id="New_Gradient_Swatch_1-2" x1="4.95" y1="56.07" x2="106.92" y2="56.07" xlink:href="#New_Gradient_Swatch_1"/><linearGradient id="New_Gradient_Swatch_1-3" x1="3.96" y1="54.15" x2="105.93" y2="54.15" xlink:href="#New_Gradient_Swatch_1"/><linearGradient id="New_Gradient_Swatch_1-4" x1="1.98" y1="55.11" x2="103.96" y2="55.11" xlink:href="#New_Gradient_Swatch_1"/><linearGradient id="New_Gradient_Swatch_1-5" x1="0" y1="53.19" x2="101.98" y2="53.19" xlink:href="#New_Gradient_Swatch_1"/><linearGradient id="New_Gradient_Swatch_1-7" x1="5.94" y1="54.15" x2="107.91" y2="54.15" xlink:href="#New_Gradient_Swatch_1"/><linearGradient id="New_Gradient_Swatch_1-8" x1="6.93" y1="51.26" x2="108.9" y2="51.26" xlink:href="#New_Gradient_Swatch_1"/><linearGradient id="linear-gradient" x1="30.57" y1="60.43" x2="69.47" y2="60.43" gradientUnits="userSpaceOnUse"><stop offset="0.07" stop-color="#8aba40"/><stop offset="0.11" stop-color="#80b347"/></linearGradient><linearGradient id="linear-gradient-2" x1="26.27" y1="99.81" x2="85.54" y2="99.81" xlink:href="#linear-gradient"/></defs><title>Asset 3</title><g id="Layer_2" data-name="Layer 2"><g id="Layer_1-2" data-name="Layer 1"><ellipse class="cls-1" cx="55.94" cy="53.19" rx="48.99" ry="49.26"/><ellipse class="cls-2" cx="55.94" cy="56.07" rx="48.99" ry="49.26"/><ellipse class="cls-3" cx="54.95" cy="54.15" rx="48.99" ry="49.26"/><ellipse class="cls-4" cx="52.97" cy="55.11" rx="48.99" ry="49.26"/><ellipse class="cls-5" cx="50.99" cy="53.19" rx="48.99" ry="49.26"/><ellipse class="cls-6" cx="55.94" cy="56.07" rx="48.99" ry="49.26"/><ellipse class="cls-7" cx="56.93" cy="54.15" rx="48.99" ry="49.26"/><ellipse class="cls-8" cx="57.92" cy="51.26" rx="48.99" ry="49.26"/><path class="cls-9" d="M45.76,45.69s-6.94-4.46-8.48-6.11l-6.71-7.76s.05-.55.44-.33,6.66,7.7,6.66,7.7,6.55,4.9,7.92,4.35l.28-.11-4.46-18a4.26,4.26,0,0,0-.61-1.38L39,18.39l.27-.11,1.82,5s.44.39,1-.66l2.26-4.29s.22-.33.22.11S42,24.23,42,24.23L47,42.93a3.81,3.81,0,0,0,.66,1.71l9.08,16.07s.72,1.48,1.43.11.06-.22.06-.22L64,49.54v-.61L62,38.15s1.87,8.47,2.37,9.08c0,0,.66.11,1.16-1.32L69,36.28s.49-.33.49,0-3.46,12-3.46,12L59,62.36V91.08s.28.17.17,1.32,2.75,2.26,3,3.91l-3.36,6.33-5.28-6.39a16,16,0,0,1,2.64-3l.77-26.68a16.25,16.25,0,0,1-.71-3.31Z"/><path class="cls-10" d="M26.27,94.82H85.54s-13.68,9.41-31.06,10C54.48,104.8,37.1,104.51,26.27,94.82Z"/></g></g></svg>