<svg xmlns="http://www.w3.org/2000/svg" viewBox="0 0 108.9 107.33"><defs><style>.cls-1,.cls-2{fill:none;stroke:#fbaa19;stroke-miterlimit:10;stroke-width:4px;}.cls-1{opacity:0.4;}.cls-2{opacity:0.7;}.cls-3{fill:#fbaa19;}</style></defs><title>Asset 2</title><g id="Layer_2" data-name="Layer 2"><g id="Layer_1-2" data-name="Layer 1"><ellipse class="cls-1" cx="55.94" cy="53.19" rx="48.99" ry="49.26"/><ellipse class="cls-1" cx="55.94" cy="56.07" rx="48.99" ry="49.26"/><ellipse class="cls-1" cx="54.95" cy="54.15" rx="48.99" ry="49.26"/><ellipse class="cls-1" cx="52.97" cy="55.11" rx="48.99" ry="49.26"/><ellipse class="cls-1" cx="50.99" cy="53.19" rx="48.99" ry="49.26"/><ellipse class="cls-2" cx="55.94" cy="56.07" rx="48.99" ry="49.26"/><ellipse class="cls-1" cx="56.93" cy="54.15" rx="48.99" ry="49.26"/><ellipse class="cls-1" cx="57.92" cy="51.26" rx="48.99" ry="49.26"/><path class="cls-3" d="M55.73,91.4c-.37-.31.55-.7.55-1.36s.93-17.31.93-17.31a4.24,4.24,0,0,1,1.32-4.18l11.68-7.63,4.91-3.18S81,55.28,83.94,53c0,0,.2-.46-.6-.33l-7.23,4s-1,.07-.6-.92c0,0,4-12.08,5.44-12.87,0,0-.26-.73-.66-.2S77,48.12,74.85,56.41c0,0,0,.66-1.13,1.43L59.39,66.56s-1.42.3-.79-1.46l5.27-7.86s.83-1.69,1.86-4.21c0,0,4.08-12.74,7.13-16.46l6.5-6.76s0-.53-.44-.2S73,35.4,73,35.4s2.3-6.41,3-7.91c0,0,0-.6-.39-.14s-3.36,8.16-3.36,8.16a179.22,179.22,0,0,0-7.43,16.57l-.65,1.81c-.28.56-.59.89-.77.13,0,0,.05-12.16-.22-13.09a24.24,24.24,0,0,1-.75-7.12s-.67-2.74-.93-3.67l.18-5.79s-.45-.36-.45,0-.35,4.46-.35,4.46.27,1-.62-.22L56,23l-.31.13,4.91,6.9,1.19,3.67a61.64,61.64,0,0,0,.71,7.17L62.29,55.7a2.05,2.05,0,0,1-.4,1.64l-6.1,7.83s-.18.79-.93-.4c0,0-3.71-8.67-4.86-10.66,0,0-.71-8-.36-9.33,0,0,.45-1.73.62-2.74l3.81-6.37s-.09-.44-.27-.22l-3.27,4.33-.27-5.7L49.91,34l-.13,6.54a14.87,14.87,0,0,0-.67,3.54,35.51,35.51,0,0,1-.26,4.51s-.53,1.51-1.37-.57S43.32,37.3,43.32,37.3l-.4-9s.66-9.69.8-10.13l-.36,0-1,10.3,0,4.55s-.18.27-.49-.3c0,0-2.65-8.94-4.42-10.84l-.27.18s3.5,6.14,4,11.23a44.36,44.36,0,0,0,1.51,4.38s2.83,9.37,3.8,10.57c0,0,1.33,6.63,2.21,8.4,0,0,.8,1.15,0,1.37l-7.38-6S37.7,41.46,37.08,40.58c0,0-.26-.18-.22,0s3.72,11,3.72,11-.09.75-.75,0-6-6.1-6-6.1-.49-.09-.31.22,6.94,8.13,6.94,8.13l5.89,4.43s-.14.35-.71.22l-7.83-2.88s-8.14-5.88-11-10c0,0-.35-.36-.22.31s3.45,4.6,9,9c0,0-1.19,1.19-9.11-4.29,0,0-.22.22-.09.44a34.08,34.08,0,0,0,9.24,5.13S45.75,59.5,46.77,60.3a60.28,60.28,0,0,1,5,5.22c.27.44,1.42,6.54,1,8.8a63.48,63.48,0,0,0-.8,9.29c0,2.92.27,5.77-.07,6.76a6.13,6.13,0,0,1-.35,1H24.23a51.81,51.81,0,0,0,28.74,13c20.19.43,33.09-13,33.09-13Zm9.08-39.15a12.47,12.47,0,0,1-.55,1.54Z"/></g></g></svg>