<svg xmlns="http://www.w3.org/2000/svg" xmlns:xlink="http://www.w3.org/1999/xlink" viewBox="0 0 108.9 107.33"><defs><style>.cls-1,.cls-2,.cls-3,.cls-4,.cls-5,.cls-6,.cls-7,.cls-8{fill:none;stroke-miterlimit:10;stroke-width:4px;}.cls-1,.cls-2,.cls-3,.cls-4,.cls-5,.cls-7,.cls-8{opacity:0.4;}.cls-1{stroke:url(#New_Gradient_Swatch_2);}.cls-2,.cls-6{stroke:url(#New_Gradient_Swatch_2-2);}.cls-3{stroke:url(#New_Gradient_Swatch_2-3);}.cls-4{stroke:url(#New_Gradient_Swatch_2-4);}.cls-5{stroke:url(#New_Gradient_Swatch_2-5);}.cls-6{opacity:0.7;}.cls-7{stroke:url(#New_Gradient_Swatch_2-7);}.cls-8{stroke:url(#New_Gradient_Swatch_2-8);}.cls-9{fill:url(#linear-gradient);}</style><linearGradient id="New_Gradient_Swatch_2" x1="4.95" y1="53.19" x2="106.92" y2="53.19" gradientUnits="userSpaceOnUse"><stop offset="0.51" stop-color="#088680"/><stop offset="0.98" stop-color="#088680"/></linearGradient><linearGradient id="New_Gradient_Swatch_2-2" x1="4.95" y1="56.07" x2="106.92" y2="56.07" xlink:href="#New_Gradient_Swatch_2"/><linearGradient id="New_Gradient_Swatch_2-3" x1="3.96" y1="54.15" x2="105.93" y2="54.15" xlink:href="#New_Gradient_Swatch_2"/><linearGradient id="New_Gradient_Swatch_2-4" x1="1.98" y1="55.11" x2="103.96" y2="55.11" xlink:href="#New_Gradient_Swatch_2"/><linearGradient id="New_Gradient_Swatch_2-5" x1="0" y1="53.19" x2="101.98" y2="53.19" xlink:href="#New_Gradient_Swatch_2"/><linearGradient id="New_Gradient_Swatch_2-7" x1="5.94" y1="54.15" x2="107.91" y2="54.15" xlink:href="#New_Gradient_Swatch_2"/><linearGradient id="New_Gradient_Swatch_2-8" x1="6.93" y1="51.26" x2="108.9" y2="51.26" xlink:href="#New_Gradient_Swatch_2"/><linearGradient id="linear-gradient" x1="21.04" y1="60.39" x2="91.13" y2="60.39" gradientUnits="userSpaceOnUse"><stop offset="0.51" stop-color="#088680"/><stop offset="0.55" stop-color="#088680"/></linearGradient></defs><title>Asset 1</title><g id="Layer_2" data-name="Layer 2"><g id="Layer_1-2" data-name="Layer 1"><ellipse class="cls-1" cx="55.94" cy="53.19" rx="48.99" ry="49.26"/><ellipse class="cls-2" cx="55.94" cy="56.07" rx="48.99" ry="49.26"/><ellipse class="cls-3" cx="54.95" cy="54.15" rx="48.99" ry="49.26"/><ellipse class="cls-4" cx="52.97" cy="55.11" rx="48.99" ry="49.26"/><ellipse class="cls-5" cx="50.99" cy="53.19" rx="48.99" ry="49.26"/><ellipse class="cls-6" cx="55.94" cy="56.07" rx="48.99" ry="49.26"/><ellipse class="cls-7" cx="56.93" cy="54.15" rx="48.99" ry="49.26"/><ellipse class="cls-8" cx="57.92" cy="51.26" rx="48.99" ry="49.26"/><path class="cls-9" d="M60.51,87.94l.17-.12a2.73,2.73,0,0,1-2.44-1.06C57.86,86,56,85.35,56,85.35s0-15-.21-16.48.51-8.36.51-8.36L69.26,47.1a11.77,11.77,0,0,0,5.59-2.64c.08-.17-.17-.22-.17-.22s-3.85,2-4.27,2.18-.47-.38-.47-.38,2.39-8.15,2.39-8.54-.3-.08-.3-.08l-3.2,8.75-.6.55L57.09,58.59c-.68.85-.94.42-.94.42l.56-14.59c1.66-3.93,5.12-13.28,5.12-13.28a29.33,29.33,0,0,0,7.43-8.66c.12-.51-.35-.22-.35-.22C67,26.23,62,30,62,30l2-7.3s2.65-4.91,2.91-5.08-.26-.13-.26-.13l-3.29,4.23s-.77-4.91-.85-5.21-.39.09-.39.09l.73,6.57-1.75,7.6s-3.93,9.09-4.4,10.88-.42,2-.64,1.41-1.49-9-1.49-9,.43-6.4.34-6.53-.25,0-.25,0l-.82,4.61s-3.62-7-3.75-7.09a.23.23,0,0,0-.26,0s3.72,8,4.06,9,1.32,10.93,1.32,10.93-.51,11.73-.85,13.7-.9,2.22-.9,2.22-1.66-4.57-1.92-4.83S48.26,44.67,48,44.24s-.34,0-.34,0L49.88,55,37,45.31c-.17-.13-.21.34-.21.34s11.69,8.92,12.5,10,2.18,3.16,2.18,3.16A6.59,6.59,0,0,1,52.91,64a14.22,14.22,0,0,0,.17,5.54s-.09,14-.09,15a7.53,7.53,0,0,1-.25,1.88s-.69.59-.69.94-.51.42-.51.42a4.83,4.83,0,0,0-1.9.16L21,88.1c8,8,11.68,16.81,31.93,16.27S91.13,87.81,91.13,87.81Z"/></g></g></svg>