<svg xmlns="http://www.w3.org/2000/svg" viewBox="0 0 22.21 22.21"><defs><style>.cls-1{fill:#ed5823;}</style></defs><title>Asset 4</title><g id="Layer_2" data-name="Layer 2"><g id="Layer_1-2" data-name="Layer 1"><path class="cls-1" d="M18.36,0a7.33,7.33,0,0,1,.81.19,4.18,4.18,0,0,1,3,3.58,3.56,3.56,0,0,1,0,.57V17.87a4.29,4.29,0,0,1-3.61,4.29,4,4,0,0,1-.59.05H4.2a4.26,4.26,0,0,1-4.12-3.5A4.56,4.56,0,0,1,0,17.89V4.32A4.29,4.29,0,0,1,3.62.05l.23,0ZM1.44,11.11h0c0,2.29,0,4.59,0,6.88a2.83,2.83,0,0,0,2.78,2.78q6.89,0,13.77,0A2.83,2.83,0,0,0,20.77,18V4.22A2.83,2.83,0,0,0,18,1.44H4.22a2.16,2.16,0,0,0-.51.06A2.83,2.83,0,0,0,1.44,4.33Z"/><path class="cls-1" d="M12.49,4.82l-1,.28A4,4,0,0,0,9.38,6.51a3.55,3.55,0,0,0-.73,2.22V11H5.29v3H8.65v7.71h4V14H16q0-.12.48-3H12.64V9.32a2.58,2.58,0,0,1,.09-.87.73.73,0,0,1,.18-.3,1.29,1.29,0,0,1,.73-.42,4.47,4.47,0,0,1,1.21-.1h1.78V4.94c-.93-.08-1.89-.12-2.9-.12H12.49Z"/></g></g></svg>