<svg xmlns="http://www.w3.org/2000/svg" viewBox="0 0 23.21 22.21"><defs><style>.cls-1{fill:#ed5823;}</style></defs><title>Asset 2</title><g id="Layer_2" data-name="Layer 2"><g id="Layer_1-2" data-name="Layer 1"><path class="cls-1" d="M18.36,0a7.33,7.33,0,0,1,.81.19,4.18,4.18,0,0,1,3,3.58,3.56,3.56,0,0,1,0,.57V17.87a4.29,4.29,0,0,1-3.61,4.29,4,4,0,0,1-.59.05H4.2a4.26,4.26,0,0,1-4.12-3.5A4.56,4.56,0,0,1,0,17.89V4.32A4.29,4.29,0,0,1,3.62.05l.23,0ZM1.44,11.11h0c0,2.29,0,4.59,0,6.88a2.83,2.83,0,0,0,2.78,2.78q6.89,0,13.77,0A2.83,2.83,0,0,0,20.77,18V4.22A2.83,2.83,0,0,0,18,1.44H4.22a2.16,2.16,0,0,0-.51.06A2.83,2.83,0,0,0,1.44,4.33Z"/><path class="cls-1" d="M19.36,0a7.33,7.33,0,0,1,.81.19,4.18,4.18,0,0,1,3,3.58,3.56,3.56,0,0,1,0,.57V17.87a4.29,4.29,0,0,1-3.61,4.29,4,4,0,0,1-.59.05H5.2a4.26,4.26,0,0,1-4.12-3.5A4.56,4.56,0,0,1,1,17.89V4.32A4.29,4.29,0,0,1,4.62.05l.23,0ZM2.44,11.11h0c0,2.29,0,4.59,0,6.88a2.83,2.83,0,0,0,2.78,2.78q6.89,0,13.77,0A2.83,2.83,0,0,0,21.77,18V4.22A2.83,2.83,0,0,0,19,1.44H5.22a2.16,2.16,0,0,0-.51.06A2.83,2.83,0,0,0,2.44,4.33Z"/><path class="cls-1" d="M5.5,12.14H3.84a.72.72,0,1,1,0-1.44h1.5c.12,0,.16,0,.18-.16a5.87,5.87,0,1,1,.09,2.16C5.56,12.52,5.54,12.34,5.5,12.14Zm1.47,0a4.43,4.43,0,1,0,4-5.19,4.36,4.36,0,0,0-4,3.73H8.68a2.92,2.92,0,1,1,3.41,3.7,2.79,2.79,0,0,1-1.9-.24,2.9,2.9,0,0,1-1.57-2Zm4.5.86A1.47,1.47,0,1,0,10,11.54,1.47,1.47,0,0,0,11.47,13Z"/></g></g></svg>