<svg xmlns="http://www.w3.org/2000/svg" viewBox="0 0 23.21 22.21"><defs><style>.cls-1{fill:#ed5823;}</style></defs><title>Asset 5</title><g id="Layer_2" data-name="Layer 2"><g id="Layer_1-2" data-name="Layer 1"><path class="cls-1" d="M18.36,0a7.33,7.33,0,0,1,.81.19,4.18,4.18,0,0,1,3,3.58,3.56,3.56,0,0,1,0,.57V17.87a4.29,4.29,0,0,1-3.61,4.29,4,4,0,0,1-.59.05H4.2a4.26,4.26,0,0,1-4.12-3.5A4.56,4.56,0,0,1,0,17.89V4.32A4.29,4.29,0,0,1,3.62.05l.23,0ZM1.44,11.11h0c0,2.29,0,4.59,0,6.88a2.83,2.83,0,0,0,2.78,2.78q6.89,0,13.77,0A2.83,2.83,0,0,0,20.77,18V4.22A2.83,2.83,0,0,0,18,1.44H4.22a2.16,2.16,0,0,0-.51.06A2.83,2.83,0,0,0,1.44,4.33Z"/><path class="cls-1" d="M19.36,0a7.33,7.33,0,0,1,.81.19,4.18,4.18,0,0,1,3,3.58,3.56,3.56,0,0,1,0,.57V17.87a4.29,4.29,0,0,1-3.61,4.29,4,4,0,0,1-.59.05H5.2a4.26,4.26,0,0,1-4.12-3.5A4.56,4.56,0,0,1,1,17.89V4.32A4.29,4.29,0,0,1,4.62.05l.23,0ZM2.44,11.11h0c0,2.29,0,4.59,0,6.88a2.83,2.83,0,0,0,2.78,2.78q6.89,0,13.77,0A2.83,2.83,0,0,0,21.77,18V4.22A2.83,2.83,0,0,0,19,1.44H5.22a2.16,2.16,0,0,0-.51.06A2.83,2.83,0,0,0,2.44,4.33Z"/><path class="cls-1" d="M11.68,8.55v.06a2.27,2.27,0,0,0,.08.53h0A13.71,13.71,0,0,1,10.33,9a12.59,12.59,0,0,1-1.57-.37A12.32,12.32,0,0,1,7.18,8a10.84,10.84,0,0,1-1.41-.89A8.28,8.28,0,0,1,5,6.49a2.11,2.11,0,0,0-.44,1.23v.1A2.19,2.19,0,0,0,5.35,9.4,2.4,2.4,0,0,0,6,9.85v0a3.84,3.84,0,0,1-1.46-.31v.07a2.25,2.25,0,0,0,1,1.79A3.41,3.41,0,0,0,6.68,12a2.54,2.54,0,0,0,.46.1s-.12,0-.35.07l-.36,0H6.25l-.55,0A2.69,2.69,0,0,0,7,13.49a3.91,3.91,0,0,0,1.68.4,3.64,3.64,0,0,1-.91.48,8,8,0,0,1-3,.6H4.58l-.67,0a9.53,9.53,0,0,0,2,.74,11.59,11.59,0,0,0,3,.4,11.71,11.71,0,0,0,4.6-.88A14,14,0,0,0,15,14.39a8.06,8.06,0,0,0,1-.82,9.85,9.85,0,0,0,1.11-1.28,6.86,6.86,0,0,0,.58-1A5.69,5.69,0,0,0,18.24,9V8.53a7.2,7.2,0,0,0,.92-.61,9.69,9.69,0,0,0,.71-.68h0c-.41.13-.84.23-1.27.32L18,7.61v0a2.2,2.2,0,0,0,.69-.4,2.87,2.87,0,0,0,.73-1,8.38,8.38,0,0,1-1.36.47,4.94,4.94,0,0,1-.72.14,3.18,3.18,0,0,0-.71-.42A4,4,0,0,0,15,6h0a3.84,3.84,0,0,0-2.29.73A2.26,2.26,0,0,0,11.68,8.55Z"/></g></g></svg>