<?xml version="1.0" encoding="utf-8"?>
<!-- Generator: Adobe Illustrator 17.0.0, SVG Export Plug-In . SVG Version: 6.00 Build 0)  -->
<!DOCTYPE svg PUBLIC "-//W3C//DTD SVG 1.1//EN" "http://www.w3.org/Graphics/SVG/1.1/DTD/svg11.dtd">
<svg version="1.1" xmlns="http://www.w3.org/2000/svg" xmlns:xlink="http://www.w3.org/1999/xlink" x="0px" y="0px"
	 width="132.852px" height="38.857px" viewBox="0 0 132.852 38.857" enable-background="new 0 0 132.852 38.857"
	 xml:space="preserve">
<g id="Layer_1">
</g>
<g id="Layer_2">
	<g>
		<g>
			<g>
				<path fill="#2B2B2B" stroke="#F9F9FA" stroke-miterlimit="10" d="M0.5,10.821c0-0.475,0.172-0.891,0.516-1.247
					C1.361,9.218,1.782,9.04,2.281,9.04h3.564c0.5,0,0.921,0.178,1.266,0.534c0.345,0.356,0.516,0.772,0.516,1.247
					c0,0.499,0.173,0.921,0.518,1.265c0.343,0.345,0.766,0.517,1.264,0.517c0.475,0,0.89-0.172,1.248-0.517
					c0.356-0.344,0.534-0.766,0.534-1.265c0-0.475,0.172-0.891,0.516-1.247c0.345-0.356,0.755-0.534,1.23-0.534H16.5
					c0.474,0,0.89,0.178,1.246,0.534c0.357,0.356,0.535,0.772,0.535,1.247v0.891c0,0.499-0.178,0.926-0.535,1.283
					c-0.356,0.356-0.772,0.534-1.246,0.534h-1.676c-0.499,0-0.92,0.173-1.265,0.517c-0.345,0.345-0.516,0.767-0.516,1.265v5.274
					c0,0.475,0.172,0.891,0.516,1.247c0.345,0.357,0.766,0.535,1.265,0.535H16.5c0.474,0,0.89,0.173,1.246,0.517
					c0.357,0.345,0.535,0.766,0.535,1.265v0.891c0,0.499-0.178,0.921-0.535,1.265c-0.356,0.345-0.772,0.517-1.246,0.517h-3.456
					c-0.5,0-0.921-0.172-1.266-0.517c-0.345-0.344-0.516-0.754-0.516-1.229c0-0.475-0.178-0.891-0.535-1.247
					c-0.356-0.356-0.784-0.534-1.282-0.534c-0.498,0-0.921,0.178-1.266,0.534c-0.345,0.356-0.516,0.773-0.516,1.247
					c0,0.475-0.178,0.885-0.534,1.229c-0.357,0.345-0.772,0.517-1.248,0.517h-3.6c-0.498,0-0.92-0.172-1.265-0.517
					C0.672,25.961,0.5,25.539,0.5,25.04v-0.891c0-0.499,0.172-0.92,0.516-1.265c0.345-0.344,0.766-0.517,1.265-0.517h1.747
					c0.498,0,0.92-0.178,1.264-0.535c0.345-0.356,0.518-0.771,0.518-1.247v-5.274c0-0.499-0.173-0.92-0.518-1.265
					c-0.345-0.344-0.766-0.517-1.264-0.517H2.281c-0.498,0-0.92-0.178-1.265-0.534C0.672,12.639,0.5,12.211,0.5,11.712V10.821z"/>
			</g>
			<g>
				<path fill="#2B2B2B" stroke="#F9F9FA" stroke-miterlimit="10" d="M21.881,10.75c0-0.499,0.172-0.927,0.516-1.283
					c0.345-0.356,0.766-0.534,1.266-0.534c0.498,0,0.921,0.178,1.266,0.534c0.343,0.356,0.516,0.784,0.516,1.283v14.29
					c0,0.499-0.173,0.921-0.516,1.265c-0.345,0.345-0.767,0.517-1.266,0.517c-0.5,0-0.921-0.179-1.266-0.535
					c-0.344-0.356-0.516-0.772-0.516-1.247V10.75z"/>
			</g>
			<g>
				<path fill="#2B2B2B" stroke="#F9F9FA" stroke-miterlimit="10" d="M46.292,9.485c0.357,0.345,0.535,0.766,0.535,1.265v14.29
					c0,0.499-0.178,0.921-0.535,1.265c-0.356,0.345-0.771,0.517-1.246,0.517H30.719c-0.475,0-0.89-0.172-1.248-0.517
					c-0.356-0.344-0.534-0.766-0.534-1.265V10.75c0-0.499,0.178-0.92,0.534-1.265c0.357-0.344,0.772-0.517,1.248-0.517h14.326
					C45.521,8.968,45.936,9.141,46.292,9.485z M43.405,14.278c0-0.499-0.178-0.927-0.534-1.283
					c-0.356-0.356-0.784-0.535-1.284-0.535h-9.016v3.635h8.98c0.405,0,0.772-0.124,1.106-0.374c0.332-0.249,0.558-0.576,0.676-0.98
					C43.381,14.552,43.405,14.397,43.405,14.278z M43.405,21.405c0-0.499-0.178-0.926-0.534-1.283
					c-0.356-0.356-0.784-0.535-1.284-0.535h-9.016v3.635h8.98c0.405,0,0.772-0.125,1.106-0.374c0.332-0.249,0.558-0.576,0.676-0.98
					C43.381,21.679,43.405,21.525,43.405,21.405z"/>
			</g>
			<g>
				<path fill="#2B2B2B" stroke="#F9F9FA" stroke-miterlimit="10" d="M65.108,26.305c-0.356-0.344-0.535-0.766-0.535-1.265v-3.492
					c0-0.499-0.172-0.921-0.516-1.265c-0.345-0.344-0.766-0.517-1.264-0.517l-7.056-0.036c-0.5,0-0.921,0.173-1.266,0.517
					c-0.345,0.345-0.516,0.766-0.516,1.265v3.528c0,0.499-0.178,0.921-0.534,1.265c-0.357,0.345-0.784,0.517-1.284,0.517
					c-0.498,0-0.926-0.172-1.282-0.517c-0.358-0.344-0.536-0.766-0.536-1.265V10.786c0-0.499,0.178-0.921,0.536-1.265
					c0.356-0.344,0.771-0.517,1.246-0.517h14.326c0.475,0,0.892,0.173,1.248,0.517c0.356,0.345,0.534,0.767,0.534,1.265V25.04
					c0,0.499-0.178,0.921-0.534,1.265c-0.356,0.345-0.784,0.517-1.284,0.517C65.892,26.822,65.464,26.65,65.108,26.305z
					 M54.47,13.031c-0.345,0.356-0.516,0.772-0.516,1.247v1.817l10.619,0.036v-1.853c0-0.475-0.172-0.891-0.516-1.247
					c-0.345-0.356-0.766-0.535-1.264-0.535h-7.056C55.236,12.496,54.815,12.675,54.47,13.031z"/>
			</g>
			<g>
				<path fill="#2B2B2B" stroke="#F9F9FA" stroke-miterlimit="10" d="M74.8,9.52c0.356,0.345,0.534,0.767,0.534,1.265v10.655
					c0,0.475,0.173,0.891,0.517,1.247c0.343,0.356,0.766,0.534,1.264,0.534h10.691c0.475,0,0.892,0.173,1.248,0.517
					c0.356,0.345,0.535,0.767,0.535,1.265v0.036c0,0.499-0.179,0.921-0.535,1.265c-0.356,0.345-0.773,0.517-1.248,0.517H73.482
					c-0.476,0-0.892-0.172-1.248-0.517c-0.356-0.344-0.534-0.766-0.534-1.265V10.786c0-0.499,0.178-0.921,0.534-1.265
					c0.356-0.344,0.784-0.517,1.283-0.517C74.017,9.004,74.444,9.177,74.8,9.52z"/>
			</g>
			<g>
				<path fill="#2B2B2B" stroke="#F9F9FA" stroke-miterlimit="10" d="M110.436,9.485c0.357,0.345,0.535,0.766,0.535,1.265v14.29
					c0,0.499-0.178,0.921-0.535,1.265c-0.356,0.345-0.771,0.517-1.246,0.517H94.863c-0.476,0-0.891-0.172-1.246-0.517
					c-0.358-0.344-0.536-0.766-0.536-1.265V10.75c0-0.499,0.178-0.92,0.536-1.265c0.356-0.344,0.771-0.517,1.246-0.517h14.326
					C109.664,8.968,110.079,9.141,110.436,9.485z M107.549,14.278c0-0.499-0.178-0.927-0.534-1.283
					c-0.356-0.356-0.784-0.535-1.282-0.535h-9.016v3.635h8.981c0.403,0,0.771-0.124,1.104-0.374c0.332-0.249,0.557-0.576,0.677-0.98
					C107.527,14.552,107.549,14.397,107.549,14.278z M107.549,21.405c0-0.499-0.178-0.926-0.534-1.283
					c-0.356-0.356-0.784-0.535-1.282-0.535h-9.016v3.635h8.981c0.403,0,0.771-0.125,1.104-0.374c0.332-0.249,0.557-0.576,0.677-0.98
					C107.527,21.679,107.549,21.525,107.549,21.405z"/>
			</g>
			<g>
				<path fill="#2B2B2B" stroke="#F9F9FA" stroke-miterlimit="10" d="M129.252,26.305c-0.356-0.344-0.534-0.766-0.534-1.265v-3.492
					c0-0.499-0.173-0.921-0.517-1.265c-0.346-0.344-0.767-0.517-1.266-0.517l-7.056-0.036c-0.498,0-0.921,0.173-1.266,0.517
					c-0.345,0.345-0.516,0.766-0.516,1.265v3.528c0,0.499-0.178,0.921-0.534,1.265c-0.356,0.345-0.784,0.517-1.284,0.517
					c-0.498,0-0.926-0.172-1.283-0.517c-0.356-0.344-0.534-0.766-0.534-1.265V10.786c0-0.499,0.178-0.921,0.534-1.265
					c0.356-0.344,0.773-0.517,1.246-0.517h14.327c0.475,0,0.891,0.173,1.248,0.517c0.356,0.345,0.534,0.767,0.534,1.265V25.04
					c0,0.499-0.178,0.921-0.534,1.265c-0.356,0.345-0.784,0.517-1.283,0.517C130.036,26.822,129.608,26.65,129.252,26.305z
					 M118.614,13.031c-0.345,0.356-0.516,0.772-0.516,1.247v1.817l10.62,0.036v-1.853c0-0.475-0.173-0.891-0.517-1.247
					c-0.346-0.356-0.767-0.535-1.266-0.535h-7.056C119.382,12.496,118.959,12.675,118.614,13.031z"/>
			</g>
		</g>
		<g>
			<g>
				<g>
					<path fill="#ED5823" d="M9.343,33.837h1.379V35.7h1.77v-1.863h1.379v4.976h-1.379v-1.891h-1.77v1.891H9.343V33.837z"/>
				</g>
			</g>
			<g>
				<g>
					<path fill="#ED5823" d="M22.286,33.793h1.33l2.118,5.011h-1.479l-0.362-0.888h-1.92l-0.354,0.888h-1.45L22.286,33.793z
						 M23.495,36.842l-0.554-1.414l-0.562,1.414H23.495z"/>
				</g>
			</g>
			<g>
				<g>
					<path fill="#ED5823" d="M32.032,36.284V36.27c0-1.45,1.116-2.587,2.623-2.587c1.016,0,1.67,0.427,2.111,1.038l-1.038,0.803
						c-0.284-0.355-0.611-0.582-1.088-0.582c-0.697,0-1.187,0.59-1.187,1.315v0.014c0,0.746,0.49,1.329,1.187,1.329
						c0.52,0,0.825-0.241,1.124-0.604l1.037,0.739c-0.469,0.646-1.101,1.123-2.203,1.123C33.177,38.857,32.032,37.77,32.032,36.284z
						"/>
				</g>
			</g>
			<g>
				<g>
					<path fill="#ED5823" d="M43.1,33.785h1.379v2.018l1.713-2.018h1.635l-1.883,2.14l1.947,2.835h-1.656l-1.252-1.847l-0.505,0.562
						v1.286H43.1V33.785z"/>
				</g>
			</g>
			<g>
				<g>
					<path fill="#ED5823" d="M54.189,33.74h4.001v1.173h-2.637v0.753h2.389v1.088h-2.389v0.789h2.673v1.173h-4.037V33.74z"/>
				</g>
			</g>
			<g>
				<g>
					<path fill="#ED5823" d="M64.525,33.696h2.353c0.76,0,1.286,0.199,1.621,0.54c0.291,0.285,0.44,0.669,0.44,1.159v0.014
						c0,0.761-0.405,1.265-1.023,1.528l1.187,1.734H67.51l-1.002-1.506h-0.014h-0.59v1.506h-1.379V33.696z M66.813,36.084
						c0.469,0,0.74-0.227,0.74-0.59v-0.013c0-0.391-0.285-0.59-0.746-0.59h-0.903v1.194H66.813z"/>
				</g>
			</g>
			<g>
				<g>
					<path fill="#ED5823" d="M75.401,37.878l0.767-0.917c0.491,0.391,1.038,0.597,1.614,0.597c0.371,0,0.569-0.128,0.569-0.341
						v-0.014c0-0.206-0.164-0.32-0.839-0.477c-1.059-0.241-1.876-0.539-1.876-1.564v-0.014c0-0.924,0.731-1.593,1.926-1.593
						c0.846,0,1.507,0.227,2.048,0.661l-0.69,0.973c-0.455-0.319-0.953-0.49-1.394-0.49c-0.334,0-0.497,0.142-0.497,0.319v0.015
						c0,0.227,0.172,0.327,0.861,0.483c1.143,0.249,1.854,0.618,1.854,1.55v0.014c0,1.016-0.802,1.621-2.012,1.621
						C76.851,38.702,76.012,38.424,75.401,37.878z"/>
				</g>
			</g>
			<g>
				<g>
					<path fill="#ED5823" d="M86.041,33.652h2.133c1.258,0,2.067,0.647,2.067,1.749v0.014c0,1.173-0.903,1.791-2.139,1.791h-0.682
						v1.422h-1.379V33.652z M88.075,36.126c0.491,0,0.79-0.256,0.79-0.646v-0.014c0-0.427-0.299-0.654-0.796-0.654h-0.647v1.315
						H88.075z"/>
				</g>
			</g>
			<g>
				<g>
					<path fill="#ED5823" d="M98.659,33.609h1.33l2.118,5.01h-1.48l-0.362-0.888h-1.919l-0.356,0.888h-1.45L98.659,33.609z
						 M99.867,36.658l-0.554-1.415l-0.562,1.415H99.867z"/>
				</g>
			</g>
			<g>
				<g>
					<path fill="#ED5823" d="M108.404,36.284V36.27c0-1.45,1.117-2.587,2.623-2.587c1.017,0,1.671,0.427,2.111,1.038l-1.037,0.803
						c-0.286-0.355-0.611-0.582-1.087-0.582c-0.697,0-1.187,0.59-1.187,1.315v0.014c0,0.746,0.49,1.329,1.187,1.329
						c0.518,0,0.824-0.241,1.122-0.604l1.038,0.739c-0.469,0.646-1.102,1.123-2.204,1.123
						C109.549,38.857,108.404,37.77,108.404,36.284z"/>
				</g>
			</g>
			<g>
				<g>
					<path fill="#ED5823" d="M119.473,33.599h4.001v1.173h-2.637v0.753h2.389v1.087h-2.389v0.789h2.673v1.173h-4.037V33.599z"/>
				</g>
			</g>
		</g>
		<g>
			<linearGradient id="SVGID_1_" gradientUnits="userSpaceOnUse" x1="66.4709" y1="0.5" x2="66.4709" y2="0.5">
				<stop  offset="0.0675" style="stop-color:#8ABA40"/>
				<stop  offset="0.5127" style="stop-color:#088680"/>
			</linearGradient>
			<path fill="url(#SVGID_1_)" stroke="#F9F9FA" stroke-miterlimit="10" d="M97.436,0.5h4.439 M31.067,0.5h4.438"/>
		</g>
	</g>
</g>
</svg>
