<svg xmlns="http://www.w3.org/2000/svg" viewBox="0 0 110 108.41"><defs><style>.cls-1,.cls-2{fill:none;stroke:#ed5823;stroke-miterlimit:10;stroke-width:4px;}.cls-1{opacity:0.4;}.cls-2{opacity:0.7;}.cls-3,.cls-4{fill:#ed5823;}.cls-4{opacity:0.6;}</style></defs><title>Asset 2</title><g id="Layer_2" data-name="Layer 2"><g id="Layer_1-2" data-name="Layer 1"><ellipse class="cls-1" cx="56.5" cy="53.72" rx="49.5" ry="49.78"/><ellipse class="cls-1" cx="56.5" cy="56.64" rx="49.5" ry="49.78"/><ellipse class="cls-1" cx="55.5" cy="54.69" rx="49.5" ry="49.78"/><ellipse class="cls-1" cx="53.5" cy="55.67" rx="49.5" ry="49.78"/><ellipse class="cls-1" cx="51.5" cy="53.72" rx="49.5" ry="49.78"/><ellipse class="cls-2" cx="56.5" cy="56.64" rx="49.5" ry="49.78"/><ellipse class="cls-1" cx="57.5" cy="54.69" rx="49.5" ry="49.78"/><ellipse class="cls-1" cx="58.5" cy="51.78" rx="49.5" ry="49.78"/><path class="cls-3" d="M53.3,20.9h0S53.29,20.87,53.3,20.9Z"/><path class="cls-4" d="M55.79,92.09c0-4.11-.08-9.46-.08-9.46V71.7a11.58,11.58,0,0,1,2.83-6.2c1.21-.79,5.55-5.9,5.55-5.9,4.21-5.21,9.32-13.34,9.32-13.34a3.33,3.33,0,0,0,.15-.42c.38-1.23-.42-.23-.42-.23l-4.88,6.74c-2,3.75-7.84,9.8-7.84,9.8-2,2.29-1.67.21-1.67.21,1.5-4.17,2.71-12.46,2.71-12.46.46-2.75,2-14,2-14a11.68,11.68,0,0,0,2.47-3,13.92,13.92,0,0,1,1.62-3.3l6.24-4.88,1.23-1c-.29-.12-1.53.72-1.53.72l-4.6,3.33c-1.34.75-1.3-.21-1.3-.21L70.91,21c.06-.72-.26-.11-.26-.11l-.08.25-3.85,6.57c-.88,2.09-1,3.59-2.09,4.72s-.91-.42-.91-.42l1-10.76a33,33,0,0,0,2.09-6c0-1-.22,0-.22,0s-.81,2.13-1.35,3.25a1.18,1.18,0,0,1-1.71.44l-1.25-4.78c-.46-1.85-.25.28-.25.28l1,6.8-.8,14c-.25,2.25-.66,4.8-.66,4.8-.13,1.08-.71,4.38-.71,4.38a14.94,14.94,0,0,1-1.21-2.92c-.84-4-3-10.6-3-10.6a78.19,78.19,0,0,0-2.81-9.24,7.07,7.07,0,0,1-.47-.68c-.3,0,.1.79.1.79.46,1,3.64,14,3.64,14,.29,1.25,2.8,10.81,2.8,10.81.51,3.28-1.1,9.31-1.1,9.31L55.32,66.47s-.7,2.9-1.16,2.65-.71-1.84-.71-1.84c-1.62-5.8-1.87-7.2-2.42-9.64a49.68,49.68,0,0,0-2.87-6.84,47.16,47.16,0,0,0-2.46-4.5l-1-1.8.63,1.8A19.88,19.88,0,0,0,47,49.38c1.38,2.26,1.76,6,1.31,5.46l-.14-.16a15.91,15.91,0,0,0-3.76-2c-2.08-1-5.59-4.57-5.59-4.57-.87-.42-.27.21-.27.21,2,2.68,7.74,5.94,7.74,5.94a5.76,5.76,0,0,1,3.59,4.05c1.37,5,3.5,13.43,3.5,13.43s-.39-1.44,0,.34,0,10.51,0,10.51c0,2.29-.13,6.43-.19,9.56l-30.54.14c9.66,11.34,30.86,13.19,30.86,13.19C76,105.3,87.3,91.92,87.3,91.92Z"/></g></g></svg>